<svg width="178" height="20" viewBox="0 0 178 20" fill="none" xmlns="http://www.w3.org/2000/svg">
<g filter="url(#filter0_i_119_615)">
<circle cx="10" cy="10" r="10" fill="white"/>
<circle cx="36.25" cy="10" r="6.25" fill="white"/>
<circle cx="58.75" cy="10" r="6.25" fill="white"/>
<path d="M87.5 10C87.5 13.4518 84.7018 16.25 81.25 16.25C77.7982 16.25 75 13.4518 75 10C75 6.54822 77.7982 3.75 81.25 3.75C84.7018 3.75 87.5 6.54822 87.5 10Z" fill="white"/>
<path d="M110 10C110 13.4518 107.202 16.25 103.75 16.25C100.298 16.25 97.5 13.4518 97.5 10C97.5 6.54822 100.298 3.75 103.75 3.75C107.202 3.75 110 6.54822 110 10Z" fill="white"/>
<path d="M132.5 10C132.5 13.4518 129.702 16.25 126.25 16.25C122.798 16.25 120 13.4518 120 10C120 6.54822 122.798 3.75 126.25 3.75C129.702 3.75 132.5 6.54822 132.5 10Z" fill="white"/>
<path d="M155 10C155 13.4518 152.202 16.25 148.75 16.25C145.298 16.25 142.5 13.4518 142.5 10C142.5 6.54822 145.298 3.75 148.75 3.75C152.202 3.75 155 6.54822 155 10Z" fill="white"/>
<path d="M177.5 10C177.5 13.4518 174.702 16.25 171.25 16.25C167.798 16.25 165 13.4518 165 10C165 6.54822 167.798 3.75 171.25 3.75C174.702 3.75 177.5 6.54822 177.5 10Z" fill="white"/>
</g>
<defs>
<filter id="filter0_i_119_615" x="0" y="0" width="177.5" height="24" filterUnits="userSpaceOnUse" color-interpolation-filters="sRGB">
<feFlood flood-opacity="0" result="BackgroundImageFix"/>
<feBlend mode="normal" in="SourceGraphic" in2="BackgroundImageFix" result="shape"/>
<feColorMatrix in="SourceAlpha" type="matrix" values="0 0 0 0 0 0 0 0 0 0 0 0 0 0 0 0 0 0 127 0" result="hardAlpha"/>
<feOffset dy="4"/>
<feGaussianBlur stdDeviation="2"/>
<feComposite in2="hardAlpha" operator="arithmetic" k2="-1" k3="1"/>
<feColorMatrix type="matrix" values="0 0 0 0 0 0 0 0 0 0 0 0 0 0 0 0 0 0 0.4 0"/>
<feBlend mode="normal" in2="shape" result="effect1_innerShadow_119_615"/>
</filter>
</defs>
</svg>
