<svg width="40" height="40" viewBox="0 0 40 40" fill="none" xmlns="http://www.w3.org/2000/svg">
<path d="M10 3.75C10 3.41848 9.8683 3.10054 9.63388 2.86612C9.39946 2.6317 9.08152 2.5 8.75 2.5C8.41848 2.5 8.10054 2.6317 7.86612 2.86612C7.6317 3.10054 7.5 3.41848 7.5 3.75V11.25C7.49971 12.6908 7.99723 14.0875 8.90837 15.2036C9.81951 16.3198 11.0883 17.0868 12.5 17.375V36.25C12.5 36.5815 12.6317 36.8995 12.8661 37.1339C13.1005 37.3683 13.4185 37.5 13.75 37.5C14.0815 37.5 14.3995 37.3683 14.6339 37.1339C14.8683 36.8995 15 36.5815 15 36.25V17.375C16.4117 17.0868 17.6805 16.3198 18.5916 15.2036C19.5028 14.0875 20.0003 12.6908 20 11.25V3.75C20 3.41848 19.8683 3.10054 19.6339 2.86612C19.3995 2.6317 19.0815 2.5 18.75 2.5C18.4185 2.5 18.1005 2.6317 17.8661 2.86612C17.6317 3.10054 17.5 3.41848 17.5 3.75V11.25C17.5004 12.0258 17.2602 12.7827 16.8124 13.4162C16.3647 14.0498 15.7314 14.5289 15 14.7875V3.75C15 3.41848 14.8683 3.10054 14.6339 2.86612C14.3995 2.6317 14.0815 2.5 13.75 2.5C13.4185 2.5 13.1005 2.6317 12.8661 2.86612C12.6317 3.10054 12.5 3.41848 12.5 3.75V14.7875C11.7686 14.5289 11.1353 14.0498 10.6876 13.4162C10.2398 12.7827 9.99959 12.0258 10 11.25V3.75ZM27.5 36.25V20H23.75C23.4185 20 23.1005 19.8683 22.8661 19.6339C22.6317 19.3995 22.5 19.0815 22.5 18.75V8.75C22.5 7.0925 23.315 5.5425 24.4275 4.4275C25.5425 3.315 27.0925 2.5 28.75 2.5C29.0815 2.5 29.3995 2.6317 29.6339 2.86612C29.8683 3.10054 30 3.41848 30 3.75V36.25C30 36.5815 29.8683 36.8995 29.6339 37.1339C29.3995 37.3683 29.0815 37.5 28.75 37.5C28.4185 37.5 28.1005 37.3683 27.8661 37.1339C27.6317 36.8995 27.5 36.5815 27.5 36.25Z" fill="black"/>
</svg>
