<svg width="40" height="40" viewBox="0 0 40 40" fill="none" xmlns="http://www.w3.org/2000/svg">
<path d="M27.955 26.705L26.1875 24.9375C27.8283 23.2966 28.75 21.0712 28.75 18.7507C28.75 16.4302 27.8283 14.2047 26.1875 12.5638L27.955 10.795C28.9997 11.8397 29.8284 13.0799 30.3937 14.4448C30.9591 15.8097 31.2501 17.2727 31.2501 18.75C31.2501 20.2274 30.9591 21.6903 30.3937 23.0553C29.8284 24.4202 28.9997 25.6604 27.955 26.705Z" fill="black"/>
<path d="M24.42 23.1688L22.6525 21.4013C23.3543 20.6974 23.7484 19.744 23.7484 18.75C23.7484 17.7561 23.3543 16.8027 22.6525 16.0988L24.42 14.3313C25.5902 15.5042 26.2473 17.0933 26.2473 18.75C26.2473 20.4068 25.5902 21.9959 24.42 23.1688ZM21.25 32.5H18.75V18.75C18.75 18.4185 18.8817 18.1006 19.1161 17.8662C19.3506 17.6317 19.6685 17.5 20 17.5C20.3315 17.5 20.6495 17.6317 20.8839 17.8662C21.1183 18.1006 21.25 18.4185 21.25 18.75V32.5ZM15.58 23.1688C14.4099 21.9959 13.7527 20.4068 13.7527 18.75C13.7527 17.0933 14.4099 15.5042 15.58 14.3313L17.3475 16.0988C16.6457 16.8027 16.2516 17.7561 16.2516 18.75C16.2516 19.744 16.6457 20.6974 17.3475 21.4013L15.58 23.1688Z" fill="black"/>
<path d="M12.045 26.705C11.0003 25.6604 10.1716 24.4202 9.60625 23.0553C9.04087 21.6903 8.74988 20.2274 8.74988 18.75C8.74988 17.2727 9.04087 15.8097 9.60625 14.4448C10.1716 13.0799 11.0003 11.8397 12.045 10.795L13.8125 12.5638C12.1721 14.2047 11.2506 16.4299 11.2506 18.75C11.2506 21.0702 12.1721 23.2954 13.8125 24.9363L12.045 26.705Z" fill="black"/>
<path d="M20 38.75C19.7786 38.7502 19.5612 38.6915 19.37 38.58L4.37 29.83C4.18128 29.7199 4.02472 29.5622 3.91593 29.3727C3.80715 29.1832 3.74994 28.9685 3.75 28.75V11.25C3.74994 11.0315 3.80715 10.8168 3.91593 10.6273C4.02472 10.4378 4.18128 10.2801 4.37 10.17L19.37 1.42C19.5612 1.30843 19.7786 1.24963 20 1.24963C20.2214 1.24963 20.4388 1.30843 20.63 1.42L35.63 10.17L34.37 12.33L20 3.9475L6.25 11.9675V28.0325L20 36.0538L33.75 28.0325V18.75H36.25V28.75C36.2501 28.9685 36.1929 29.1832 36.0841 29.3727C35.9753 29.5622 35.8187 29.7199 35.63 29.83L20.63 38.58C20.4388 38.6915 20.2214 38.7502 20 38.75Z" fill="black"/>
</svg>
