<svg width="40" height="40" viewBox="0 0 40 40" fill="none" xmlns="http://www.w3.org/2000/svg">
<path d="M36.25 5H33.75V3.00063C33.75 2.0375 33.0263 1.25 32.1437 1.25H24.1038C23.2238 1.25 22.5 2.0375 22.5 3.00063V5H7.46312L3.75 12.5H6.32812V17.5H5.91062L3.82812 20L5.91062 22.5H6.36688V23.8425C6.36688 24.1819 6.62875 24.4563 6.95312 24.4563C7.9225 24.4563 8.71125 25.2838 8.71125 26.3006C8.71125 27.3175 7.9225 28.145 6.95312 28.145C5.98375 28.145 5.195 27.3175 5.195 26.3006C5.195 25.9613 4.9325 25.6869 4.60875 25.6869C4.28438 25.6869 4.0225 25.9613 4.0225 26.3006C4.02375 27.9969 5.3375 29.375 6.95312 29.375C8.56813 29.375 9.88312 27.9969 9.88312 26.3013C9.88312 24.8169 8.875 23.5744 7.53937 23.29V22.5H7.995L10.0781 20L7.995 17.5H7.57812V12.5H22.5V16.9994C22.5 17.8294 23.0381 18.525 23.75 18.7038V38.75H25.3906V35L30.8594 36.875L25.3906 38.75H32.5V18.7031C33.2125 18.525 33.75 17.8294 33.75 16.9994V12.5H36.25V10.625H34.9513L36.25 8.15938V5ZM6.65187 10.625L8.11188 7.62563L9.69063 10.625H6.65187ZM9.41562 6.875H12.0113L10.7137 9.34062L9.41562 6.875ZM11.7369 10.625L13.035 8.15938L14.3337 10.625H11.7369ZM14.0588 6.875H16.6544L15.3562 9.34062L14.0588 6.875ZM16.3806 10.625L17.6781 8.15938L18.9756 10.625H16.3806ZM18.7019 6.875H21.2975L20 9.34062L18.7019 6.875ZM22.5 10.625H21.0231L22.3206 8.15938L22.5 8.5V10.625ZM30.8594 35L25.3906 33.125L30.8594 31.25V35ZM25.3906 31.25V27.5L30.8594 29.3762L25.3906 31.25ZM30.8594 27.5L25.3906 25.625L30.8594 23.75V27.5ZM25.3906 23.75V20.0012L30.8594 21.875L25.3906 23.75ZM30.8594 20.0012L27.2125 18.75H30.8594V20.0012ZM31.7969 9.53C31.7969 10.1319 31.3744 10.625 30.8594 10.625H25.2331C24.7181 10.625 24.2969 10.1319 24.2969 9.53V4.22375C24.2969 3.61812 24.7181 3.125 25.2331 3.125H30.8594C31.3744 3.125 31.7969 3.61812 31.7969 4.22375V9.53ZM33.9281 9.34062L33.75 9.00187V6.875H35.2256L33.9281 9.34062Z" fill="black"/>
</svg>
