<svg width="41" height="40" viewBox="0 0 41 40" fill="none" xmlns="http://www.w3.org/2000/svg">
<path d="M37.65 32.2999L28.7375 23.3874C28.5462 23.1983 28.2972 23.0783 28.03 23.0466C27.7629 23.015 27.4928 23.0733 27.2625 23.2124C25.6548 24.185 24.4553 25.7088 23.8875 27.4999C23.6 28.3999 22.55 28.8124 21.7375 28.3249L21.725 28.3124L21.7125 28.2999C17.8085 25.9585 14.5414 22.6914 12.2 18.7874C12.2 18.7749 12.1875 18.7624 12.1875 18.7624C11.6875 17.9499 12.1 16.8999 13 16.6124C14.7949 16.0516 16.3209 14.8504 17.2875 13.2374C17.575 12.7624 17.5 12.1624 17.1125 11.7624L8.2 2.84994C8.00868 2.66078 7.75972 2.54085 7.49255 2.50915C7.22538 2.47745 6.95527 2.5358 6.725 2.67494C5.63516 3.3288 4.72517 4.24359 4.07706 5.33687C3.42895 6.43014 3.06311 7.66751 3.0125 8.93744V8.94994C3 9.07494 3 9.19994 3 9.32494C3 9.49994 3.0125 9.66244 3.025 9.82494C3.17375 14.7747 4.58971 19.6036 7.1375 23.8499C9.475 27.7499 12.75 31.0249 16.65 33.3624L16.6625 33.3749C20.9625 35.9624 25.8625 37.3749 30.875 37.4874C30.975 37.4874 31.075 37.4999 31.175 37.4999H31.875V37.4749C33.0902 37.372 34.2638 36.9831 35.3 36.3401C36.3363 35.6971 37.2058 34.8181 37.8375 33.7749C38.1125 33.2999 38.0375 32.6874 37.65 32.2999Z" fill="black"/>
</svg>
