<svg width="40" height="40" viewBox="0 0 40 40" fill="none" xmlns="http://www.w3.org/2000/svg">
<mask id="mask0_101_336" style="mask-type:alpha" maskUnits="userSpaceOnUse" x="1" y="4" width="38" height="32">
<path d="M35 6.66663H16.6666C16.2246 6.66663 15.8007 6.84222 15.4881 7.15478C15.1756 7.46734 15 7.89127 15 8.33329V26.6666C15 27.1087 15.1756 27.5326 15.4881 27.8451C15.8007 28.1577 16.2246 28.3333 16.6666 28.3333H35C35.442 28.3333 35.8659 28.1577 36.1785 27.8451C36.4911 27.5326 36.6666 27.1087 36.6666 26.6666V8.33329C36.6666 7.89127 36.4911 7.46734 36.1785 7.15478C35.8659 6.84222 35.442 6.66663 35 6.66663ZM3.33331 28.3333H15V16.6666H9.16665L3.33331 22.0516V28.3333Z" fill="white" stroke="white" stroke-width="4" stroke-linejoin="round"/>
<path d="M15 30C15 30.8841 14.6488 31.7319 14.0237 32.357C13.3985 32.9821 12.5507 33.3333 11.6666 33.3333C10.7826 33.3333 9.93474 32.9821 9.30962 32.357C8.6845 31.7319 8.33331 30.8841 8.33331 30M33.3333 30C33.3333 30.8841 32.9821 31.7319 32.357 32.357C31.7319 32.9821 30.884 33.3333 30 33.3333C29.1159 33.3333 28.2681 32.9821 27.643 32.357C27.0178 31.7319 26.6666 30.8841 26.6666 30" stroke="white" stroke-width="4" stroke-linecap="round" stroke-linejoin="round"/>
</mask>
<g mask="url(#mask0_101_336)">
<path d="M0 0H40V40H0V0Z" fill="black"/>
</g>
</svg>
