<svg width="40" height="40" viewBox="0 0 40 40" fill="none" xmlns="http://www.w3.org/2000/svg">
<path d="M10 3.33325C8.15004 3.33325 6.66671 4.81659 6.66671 6.66659V19.9999C6.66671 21.8499 8.15004 23.3333 10 23.3333H30C31.85 23.3333 33.3334 21.8499 33.3334 19.9999V6.66659C33.3334 4.81659 31.85 3.33325 30 3.33325H10ZM10 6.66659H30V19.9999H10V6.66659ZM6.66671 24.9999C4.81671 24.9999 3.33337 26.4833 3.33337 28.3333V33.3333C3.33337 35.1833 4.81671 36.6666 6.66671 36.6666H33.3334C35.1834 36.6666 36.6667 35.1833 36.6667 33.3333V28.3333C36.6667 26.4833 35.1834 24.9999 33.3334 24.9999H6.66671ZM13.3334 28.3333H33.3334V33.3333H13.3334V28.3333ZM15 29.5833V32.0833H21.6667V29.5833H15ZM25 29.5833V32.0833H31.6667V29.5833H25Z" fill="black"/>
</svg>
