<svg width="40" height="40" viewBox="0 0 40 40" fill="none" xmlns="http://www.w3.org/2000/svg">
<path d="M34.0387 29.5225L25 17.0938V5H27.5V2.5H12.5V5H15V17.0938L5.96122 29.5225C5.41602 30.2718 5.08874 31.1573 5.01561 32.0811C4.94247 33.0049 5.12634 33.9309 5.54685 34.7567C5.96737 35.5824 6.60814 36.2758 7.39826 36.7599C8.18839 37.2441 9.09706 37.5002 10.0237 37.5H29.975C30.9016 37.5002 31.8103 37.2441 32.6004 36.7599C33.3906 36.2758 34.0313 35.5824 34.4518 34.7567C34.8724 33.9309 35.0562 33.0049 34.9831 32.0811C34.91 31.1573 34.5827 30.2718 34.0375 29.5225H34.0387ZM17.5 17.9062V5H22.5V17.9062L25.8412 22.5H14.1587L17.5 17.9062ZM29.9762 35H10.025C9.55971 34.9995 9.10364 34.8705 8.70708 34.6271C8.31053 34.3838 7.98892 34.0356 7.77775 33.621C7.56658 33.2064 7.47406 32.7416 7.51041 32.2777C7.54676 31.8139 7.71056 31.3691 7.98372 30.9925L12.3412 25H27.6587L32.0175 30.9925C32.2906 31.3691 32.4544 31.8139 32.4908 32.2777C32.5271 32.7416 32.4346 33.2064 32.2234 33.621C32.0123 34.0356 31.6907 34.3838 31.2941 34.6271C30.8976 34.8705 30.4415 34.9995 29.9762 35Z" fill="black"/>
</svg>
