<svg width="40" height="40" viewBox="0 0 40 40" fill="none" xmlns="http://www.w3.org/2000/svg">
<path d="M15.7001 11.5C14.8626 11.5 14.1626 12.075 13.9751 12.85C13.9126 13.0625 14.0876 13.2875 14.3126 13.2875H14.8626C14.8172 13.1185 14.8112 12.9414 14.8452 12.7698C14.8791 12.5982 14.9521 12.4366 15.0584 12.2977C15.1647 12.1588 15.3015 12.0461 15.4583 11.9685C15.6151 11.8909 15.7876 11.8503 15.9626 11.85C16.6001 11.85 17.1001 12.3625 17.1001 12.9875C17.1001 13.0875 17.0876 13.1875 17.0626 13.2875H17.1626C17.3501 13.2875 17.4876 13.125 17.4501 12.9375C17.2876 12.1125 16.5626 11.5 15.7001 11.5ZM21.8126 11.5C22.6501 11.5 23.3501 12.075 23.5376 12.85C23.5876 13.075 23.4251 13.2875 23.2001 13.2875H22.6501C22.6955 13.1185 22.7015 12.9414 22.6675 12.7698C22.6336 12.5982 22.5606 12.4366 22.4543 12.2977C22.348 12.1588 22.2111 12.0461 22.0543 11.9685C21.8976 11.8909 21.725 11.8503 21.5501 11.85C21.4002 11.8483 21.2516 11.8766 21.1128 11.9332C20.974 11.9897 20.848 12.0735 20.742 12.1794C20.6361 12.2854 20.5523 12.4115 20.4958 12.5502C20.4392 12.689 20.4109 12.8377 20.4126 12.9875C20.4126 13.0875 20.4251 13.1875 20.4501 13.2875H20.3501C20.3064 13.2885 20.2631 13.2796 20.2234 13.2615C20.1838 13.2433 20.1487 13.2163 20.121 13.1826C20.0933 13.1488 20.0737 13.1092 20.0635 13.0668C20.0534 13.0243 20.0531 12.9801 20.0626 12.9375C20.2251 12.1125 20.9376 11.5 21.8126 11.5Z" fill="black"/>
<path d="M15.9626 12.325C16.0746 12.3238 16.1851 12.3519 16.283 12.4064C16.381 12.461 16.463 12.5401 16.521 12.636C16.5791 12.7319 16.6111 12.8412 16.614 12.9533C16.6169 13.0653 16.5906 13.1762 16.5376 13.275H15.3876C15.3354 13.1754 15.3098 13.0641 15.3133 12.9517C15.3168 12.8394 15.3493 12.7298 15.4076 12.6337C15.4231 12.6578 15.4436 12.6782 15.4676 12.6936C15.4917 12.7091 15.5188 12.7192 15.5471 12.7232C15.5754 12.7273 15.6043 12.7253 15.6317 12.7172C15.6592 12.7092 15.6846 12.6954 15.7062 12.6767C15.7279 12.658 15.7453 12.6349 15.7572 12.609C15.7692 12.583 15.7755 12.5548 15.7756 12.5262C15.7757 12.4976 15.7697 12.4693 15.758 12.4432C15.7462 12.4171 15.729 12.3939 15.7076 12.375C15.7884 12.3415 15.8751 12.3245 15.9626 12.325ZM21.5501 12.325C21.4689 12.3248 21.3884 12.3396 21.3126 12.3687C21.3357 12.3876 21.3543 12.4113 21.367 12.4383C21.3797 12.4652 21.3863 12.4947 21.3862 12.5245C21.3861 12.5543 21.3793 12.5837 21.3664 12.6105C21.3534 12.6374 21.3346 12.661 21.3114 12.6797C21.2882 12.6983 21.2611 12.7116 21.2321 12.7184C21.2031 12.7252 21.1729 12.7255 21.1438 12.7192C21.1146 12.7129 21.0873 12.7001 21.0637 12.6819C21.0402 12.6636 21.021 12.6403 21.0076 12.6137C20.9436 12.711 20.9069 12.8237 20.9012 12.9399C20.8955 13.0562 20.921 13.1719 20.9751 13.275H22.1251C22.1781 13.1762 22.2044 13.0653 22.2015 12.9533C22.1986 12.8412 22.1666 12.7319 22.1085 12.636C22.0505 12.5401 21.9685 12.461 21.8705 12.4064C21.7726 12.3519 21.6621 12.3238 21.5501 12.325ZM18.3626 12.8875L17.7001 15.025C17.5626 15.4625 17.8876 15.9125 18.3501 15.9125H19.3251C19.7876 15.9125 20.1126 15.4625 19.9751 15.025L19.3126 12.8875C19.1751 12.4125 18.5126 12.4125 18.3626 12.8875ZM16.9001 16.65C17.4376 16.9375 18.0751 17.1 18.7501 17.1C19.4376 17.1 20.0626 16.9375 20.6001 16.65C20.7751 16.5625 20.9751 16.7625 20.8626 16.9375C20.4126 17.625 19.6376 18.0875 18.7501 18.0875C17.8626 18.0875 17.0876 17.625 16.6376 16.9375C16.5251 16.7625 16.7126 16.55 16.9001 16.65Z" fill="black"/>
<path d="M24.725 3.82249C23.5875 2.70999 21.8625 2.26624 20.0625 2.26624H17.425C15.625 2.26624 13.9 2.70874 12.7625 3.82249C11.8875 4.67749 11.4125 6.24499 11.7625 8.00749L11.8475 7.99749C11.6825 8.13749 11.5188 8.28499 11.3575 8.43874L10.94 8.83499L11.5463 9.58874L11.5625 10.2687C11.565 10.3687 11.57 10.4687 11.5763 10.5687L11.595 10.8362C11.1109 11.0677 10.7077 11.4395 10.4376 11.9032C10.1675 12.3668 10.0431 12.901 10.0806 13.4363C10.1181 13.9716 10.3157 14.4832 10.6477 14.9047C10.9798 15.3263 11.4309 15.6382 11.9425 15.8L12.0638 17.5437L12.065 17.56C12.1213 18.1337 12.2688 18.67 12.4913 19.1575C12.625 19.45 12.7863 19.725 12.9725 19.9787L12.525 20.16C10.076 21.3246 8.00913 23.1622 6.56591 25.4581C5.1227 27.754 4.36279 30.4132 4.37502 33.125V37.5C4.37502 37.6657 4.44087 37.8247 4.55808 37.9419C4.67529 38.0591 4.83426 38.125 5.00002 38.125H32.4875C32.5438 38.125 32.6 38.1162 32.655 38.1H32.6625C33.1167 38.1 33.5523 37.9196 33.8734 37.5984C34.1946 37.2773 34.375 36.8417 34.375 36.3875V31.9975C34.375 31.9285 34.3708 31.8597 34.3625 31.7912V29.4725C34.3618 29.1772 34.2914 28.8863 34.1572 28.6233C34.023 28.3603 33.8287 28.1327 33.5901 27.9588C33.3515 27.7849 33.0752 27.6698 32.7837 27.6226C32.4923 27.5755 32.1938 27.5977 31.9125 27.6875V26.3325C31.9125 26.2075 31.9875 26.0825 32.1 26.02C33.0875 25.495 33.75 24.4575 33.75 23.27C33.7375 22.1075 33.075 21.07 32.1 20.545C31.8625 20.42 31.5625 20.5825 31.5625 20.8575V22.795C31.5625 23.32 31.1375 23.7575 30.6125 23.745C30.3677 23.7401 30.1347 23.6389 29.9639 23.4635C29.7931 23.288 29.6983 23.0523 29.7 22.8075V20.8575C29.7 20.5825 29.4 20.4075 29.1625 20.5325C28.7084 20.7756 28.322 21.1281 28.0383 21.558C27.7546 21.988 27.5825 22.4818 27.5375 22.995V23.5562C27.6363 24.6375 28.3 25.5662 29.225 26.045C29.3375 26.1075 29.4125 26.2325 29.4125 26.3575V30.2875H28.5375C28.4839 30.2877 28.4306 30.2949 28.3788 30.3087C28.0715 30.3397 27.7795 30.4581 27.5375 30.65V26.3337C27.0362 25.8296 26.6664 25.2102 26.4604 24.5297C26.2544 23.8493 26.2187 23.1287 26.3563 22.4312L26.3663 22.4387C26.4485 22.0158 26.5934 21.6076 26.7963 21.2275C26.2113 20.8275 25.5988 20.4687 24.9625 20.1575L24.9788 20.135C24.8154 20.0833 24.6493 20.0407 24.4813 20.0075C25.0076 19.2913 25.3287 18.4451 25.41 17.56V17.5437L25.5325 15.805C26.0475 15.6453 26.5023 15.3337 26.8371 14.911C27.1719 14.4883 27.3712 13.9743 27.4087 13.4364C27.4463 12.8985 27.3204 12.3618 27.0476 11.8967C26.7748 11.4316 26.3678 11.0597 25.88 10.83L25.8988 10.5675C25.905 10.475 25.91 10.3825 25.9125 10.29L25.9313 9.66249L26.5975 8.83499L26.18 8.43874C26.0231 8.28939 25.8618 8.14475 25.6963 8.00499L25.725 8.00749C26.075 6.25499 25.6 4.67749 24.725 3.82249ZM24.6025 11.1887L24.165 17.4475C23.9788 19.32 22.5163 20.625 20.75 20.625H16.725C16.1196 20.6292 15.5243 20.4701 15.0017 20.1646C14.479 19.859 14.0484 19.4183 13.755 18.8887C13.509 18.4441 13.3575 17.9534 13.31 17.4475L12.8725 11.1875C13.2463 11.2212 13.6325 11.15 13.9813 10.9637L13.995 10.9562C14.1214 11.0751 14.2891 11.1401 14.4625 11.1375C14.6 11.1375 14.75 11.1 14.875 11.0125C14.9 10.9875 15.525 10.525 16.4625 10.65C16.5638 10.662 16.6664 10.6514 16.7631 10.6188C16.8597 10.5863 16.9479 10.5327 17.0213 10.4618C17.0946 10.391 17.1513 10.3047 17.1872 10.2093C17.2231 10.1138 17.2373 10.0116 17.2288 9.90999C18.2376 9.7625 19.2625 9.7625 20.2713 9.90999C20.2628 10.0116 20.277 10.1138 20.3129 10.2093C20.3488 10.3047 20.4054 10.391 20.4788 10.4618C20.5521 10.5327 20.6403 10.5863 20.737 10.6188C20.8336 10.6514 20.9363 10.662 21.0375 10.65C21.9363 10.5412 22.55 10.9625 22.62 11.0087L22.625 11.0125C22.75 11.1 22.8875 11.15 23.0375 11.15C23.214 11.1464 23.3833 11.0799 23.515 10.9625H23.5163C23.8588 11.1487 24.2363 11.22 24.6025 11.1887ZM25.6338 14.3575L25.7788 12.2775C25.9128 12.4202 26.0158 12.5891 26.0815 12.7735C26.1472 12.9579 26.1741 13.1539 26.1605 13.3491C26.1468 13.5444 26.093 13.7348 26.0024 13.9083C25.9118 14.0818 25.7863 14.2347 25.6338 14.3575ZM11.84 14.3475C11.6912 14.2247 11.569 14.0729 11.4807 13.9013C11.3924 13.7298 11.34 13.5421 11.3265 13.3496C11.3131 13.1571 11.3389 12.9639 11.4025 12.7818C11.4661 12.5996 11.566 12.4323 11.6963 12.29L11.84 14.3475ZM21.7875 21.7612C22.265 21.6537 22.715 21.4737 23.125 21.2312V26.35C23.125 26.375 23.1188 26.3875 23.115 26.395C23.1078 26.4057 23.0978 26.4143 23.0863 26.42C23.0747 26.4261 23.0618 26.4291 23.0488 26.4287C23.0401 26.4285 23.0316 26.4263 23.0238 26.4225L19.9188 23.7412C20.3558 23.5674 20.7495 23.3001 21.0723 22.9581C21.3952 22.6161 21.6393 22.2076 21.7875 21.7612ZM20.035 21.875H20.3475C20.1681 22.1331 19.9288 22.344 19.6502 22.4896C19.3716 22.6352 19.0619 22.7113 18.7475 22.7113C18.4332 22.7113 18.1235 22.6352 17.8448 22.4896C17.5662 22.344 17.327 22.1331 17.1475 21.875H20.035ZM14.375 21.2462C14.785 21.485 15.2338 21.6625 15.71 21.7662C15.8572 22.2127 16.101 22.6212 16.424 22.9628C16.747 23.3044 17.1412 23.5706 17.5788 23.7425L14.475 26.4225C14.4676 26.4262 14.4595 26.4283 14.4513 26.4287C14.4382 26.4291 14.4253 26.4261 14.4138 26.42C14.4022 26.4143 14.3923 26.4057 14.385 26.395C14.3773 26.3813 14.3739 26.3656 14.375 26.35V21.2462ZM14.4138 7.82124C15.7777 7.18664 17.2637 6.85772 18.768 6.8575C20.2723 6.85729 21.7585 7.18578 23.1225 7.81999C23.7488 8.11499 24.3263 8.48374 24.8925 8.96124L24.75 9.13624L24.7475 9.14124C24.6549 9.25643 24.5245 9.33508 24.3794 9.36322C24.2343 9.39137 24.084 9.3672 23.955 9.29499H23.9525C22.3655 8.42625 20.5843 7.97343 18.775 7.97874C16.9659 7.97305 15.1847 8.42543 13.5975 9.29374L13.595 9.29624C13.4625 9.36836 13.3088 9.39172 13.1608 9.36225C13.0128 9.33279 12.8798 9.25237 12.785 9.13499L12.645 8.95999C13.1774 8.50029 13.7715 8.1174 14.41 7.82249L14.4138 7.81999V7.82124ZM24.95 21.5562V28.2375C24.95 28.525 24.725 28.75 24.4375 28.75H13.1C12.8125 28.75 12.5875 28.525 12.5875 28.2375V21.5275C12.7638 21.4337 12.9438 21.345 13.125 21.26V26.35C13.125 27.4337 14.335 28.05 15.21 27.4375L15.235 27.4187L18.64 24.4775C18.6706 24.4512 18.7097 24.4367 18.75 24.4367C18.7904 24.4367 18.8294 24.4512 18.86 24.4775L22.265 27.4187L22.29 27.4362C23.165 28.0512 24.375 27.4337 24.375 26.35V21.265C24.5688 21.3575 24.7613 21.4537 24.95 21.5562ZM10 23.3212V36.875H5.62502V33.125C5.6173 31.2741 6.0034 29.4427 6.7577 27.7524C7.512 26.0621 8.61723 24.5516 10 23.3212ZM33.1125 30.2337H31.9125V29.23C31.9607 29.1172 32.0408 29.0209 32.1429 28.9529C32.2451 28.885 32.3648 28.8483 32.4875 28.8475C32.83 28.8475 33.1125 29.13 33.1125 29.4725V30.235V30.2337ZM28.5375 36.85C28.3438 36.85 28.2075 36.7025 28.2 36.555C28.1993 36.4992 28.2123 36.444 28.2378 36.3943C28.2633 36.3447 28.3005 36.302 28.3463 36.27C28.4333 36.2119 28.5044 36.1329 28.553 36.0403C28.6016 35.9476 28.6262 35.8442 28.6245 35.7396C28.6227 35.635 28.5947 35.5324 28.5431 35.4414C28.4914 35.3504 28.4177 35.2739 28.3288 35.2187C28.2879 35.1928 28.2546 35.1567 28.232 35.114C28.2094 35.0712 28.1984 35.0233 28.2 34.975C28.2 34.8775 28.255 34.78 28.3413 34.725C28.4297 34.6676 28.5021 34.5887 28.5519 34.4958C28.6016 34.4028 28.6271 34.2988 28.6258 34.1934C28.6246 34.088 28.5967 33.9846 28.5448 33.8929C28.4928 33.8012 28.4185 33.724 28.3288 33.6687C28.2879 33.6428 28.2546 33.6067 28.232 33.564C28.2094 33.5212 28.1984 33.4733 28.2 33.425C28.2 33.3275 28.255 33.23 28.3413 33.175C28.4282 33.1185 28.4997 33.0413 28.5494 32.9504C28.5991 32.8594 28.6253 32.7575 28.6258 32.6538C28.6263 32.5502 28.601 32.448 28.5522 32.3566C28.5034 32.2652 28.4327 32.1873 28.3463 32.13C28.3009 32.1015 28.2636 32.0618 28.238 32.0147C28.2124 31.9677 28.1993 31.9148 28.2 31.8612V31.8525C28.2038 31.7025 28.3413 31.55 28.5375 31.55C28.5795 31.55 28.6214 31.5458 28.6625 31.5375H32.6625C32.8875 31.5375 33.075 31.6975 33.1163 31.91L33.125 32.0025V36.3875C33.125 36.5102 33.0763 36.6278 32.9896 36.7145C32.9028 36.8013 32.7852 36.85 32.6625 36.85H28.5375ZM17.125 32.175C17.125 33.075 16.4125 33.7875 15.5125 33.7875H13.7C12.8125 33.7875 12.0875 33.0625 12.0875 32.175C12.0875 31.2875 12.8125 30.5625 13.7 30.5625H15.5125C16.4 30.5625 17.125 31.2875 17.125 32.175Z" fill="black"/>
</svg>
