<svg width="40" height="40" viewBox="0 0 40 40" fill="none" xmlns="http://www.w3.org/2000/svg">
<path d="M20.9687 3.82739L3.32419 26.1719H6.42185L12.3515 18.0313L13.4922 18.8594L8.15623 26.1719H10.3047L12.5078 23.7969L12.3828 26.1719H21.5078L36.789 3.82739H32.8359L21.1172 21.0079L19.9609 20.211L31.1406 3.82739H28.414L24.6797 9.02349L23.539 8.19536L26.6797 3.82739H20.9687ZM37.4218 5.39692L22.5781 27.0938V29.4922L27.9609 21.6172L29.1172 22.4141L22.5781 31.9766V34.5L37.4218 11.6641V10.75L35.7031 11.2032L37.4218 8.60161V5.39692ZM2.57654 27.5782V36.1719H4.43826L5.26169 33.1954L6.13123 36.1719H9.07029C8.89841 35.7266 8.80466 35.25 8.80466 34.75C8.80466 33.2969 9.61716 32.0157 10.8281 31.1329C12.039 30.2579 13.6562 29.7422 15.4297 29.7422C17.2031 29.7422 18.8203 30.2579 20.0312 31.1329C20.4687 31.4532 20.8594 31.8282 21.1719 32.2422V27.5782H2.57654ZM15.4297 31.1485C13.9297 31.1485 12.5859 31.5938 11.6562 32.2735C10.7187 32.9532 10.2109 33.8204 10.2109 34.75C10.2109 35.25 10.3594 35.7266 10.6406 36.1719H11.914C11.6562 35.8047 11.4922 35.3829 11.4922 34.9141C11.4922 34.0391 12.0469 33.3204 12.7812 32.8594C13.5078 32.3907 14.4453 32.1407 15.4687 32.1407C16.4922 32.1407 17.4297 32.3907 18.1562 32.8594C18.8906 33.3204 19.4453 34.0391 19.4453 34.9141C19.4453 35.3829 19.2812 35.8047 19.0234 36.1719H20.2187C20.5 35.7266 20.6484 35.25 20.6484 34.75C20.6484 33.8204 20.1406 32.9532 19.2031 32.2735C18.2734 31.5938 16.9297 31.1485 15.4297 31.1485ZM15.4687 33.5469C14.6875 33.5469 13.9844 33.7579 13.5312 34.0469C13.0781 34.336 12.8984 34.6407 12.8984 34.9141C12.8984 35.1875 13.0781 35.4922 13.5312 35.7813C13.789 35.9454 14.125 36.086 14.5078 36.1719H16.4297C16.8125 36.086 17.1484 35.9454 17.4062 35.7813C17.8594 35.4922 18.039 35.1875 18.039 34.9141C18.039 34.6407 17.8594 34.336 17.4062 34.0469C16.9531 33.7579 16.25 33.5469 15.4687 33.5469Z" fill="black"/>
</svg>
