<svg width="40" height="40" viewBox="0 0 40 40" fill="none" xmlns="http://www.w3.org/2000/svg">
<path d="M16.4281 1.43318C14.7592 4.81693 9.795 7.08162 4.94625 9.38475L14.1578 12.261L4.24312 11.1329C6.47687 15.6683 9.84391 19.9882 13.6938 23.4571L21.4527 25.7935L13.9844 25.2588C11.2377 27.8187 6.54688 30.7854 1.36719 32.4293C8.27711 35.5957 13.9672 36.0977 23.2691 38.4644C29.5594 35.4001 32.4664 33.2535 36.7261 29.8438L25.0659 26.5283L36.587 28.0079C32.6993 24.4727 29.5892 19.9852 27.5659 15.3955L17.7758 12.9004L28.7964 13.9625C33.1008 12.3672 35.4433 10.1125 38.5253 5.9717C30.892 4.33201 24.6245 2.40217 16.4282 1.43311L16.4281 1.43318Z" fill="black"/>
</svg>
