<svg width="40" height="40" viewBox="0 0 40 40" fill="none" xmlns="http://www.w3.org/2000/svg">
<path fill-rule="evenodd" clip-rule="evenodd" d="M11.8392 16.1691C11.2917 16.7166 10.8334 17.5166 10.8334 18.5766C10.8334 20.1366 11.3434 21.1808 11.8867 21.8241C12.0009 21.9591 12.1159 22.0758 12.2292 22.1775V17.2916H13.8959V33.6375C13.8969 33.7775 13.953 33.9114 14.052 34.0104C14.1511 34.1094 14.285 34.1655 14.425 34.1666C14.5649 34.1653 14.6986 34.1091 14.7975 34.0101C14.8963 33.9112 14.9523 33.7773 14.9534 33.6375V25.9941H19.345V33.6375C19.3461 33.7773 19.4021 33.9112 19.5009 34.0101C19.5997 34.1091 19.7335 34.1653 19.8734 34.1666C20.0134 34.1655 20.1473 34.1094 20.2463 34.0104C20.3453 33.9114 20.4014 33.7775 20.4025 33.6375V16.4583H28.0459C28.1857 16.4572 28.3196 16.4012 28.4185 16.3024C28.5175 16.2036 28.5737 16.0698 28.575 15.93C28.5739 15.79 28.5178 15.656 28.4188 15.557C28.3198 15.458 28.1859 15.4019 28.0459 15.4008H13.0625L13.0584 15.4025C13.0334 15.4075 12.8942 15.435 12.655 15.56C12.4067 15.6908 12.115 15.8933 11.8392 16.1691ZM12.2292 24.15C12.0979 24.093 11.9702 24.0281 11.8467 23.9558C11.3791 23.6758 10.9621 23.3188 10.6134 22.9C9.81335 21.9525 9.16669 20.5275 9.16669 18.5766C9.16669 16.9908 9.86502 15.7858 10.6617 14.99C11.0207 14.629 11.4316 14.3237 11.8809 14.0841C12.2509 13.89 12.6775 13.7341 13.0625 13.7341H28.0459C28.6279 13.7352 29.1858 13.9669 29.5973 14.3785C30.0089 14.7901 30.2406 15.3479 30.2417 15.93C30.2404 16.5119 30.0086 17.0695 29.597 17.4809C29.1855 17.8923 28.6277 18.1239 28.0459 18.125H22.0692V33.6375C22.0681 34.2195 21.8364 34.7774 21.4248 35.1889C21.0133 35.6005 20.4554 35.8322 19.8734 35.8333C19.2913 35.8322 18.7334 35.6005 18.3219 35.1889C17.9103 34.7774 17.6786 34.2195 17.6775 33.6375V27.6608H16.62V33.6375C16.6189 34.2194 16.3873 34.7771 15.976 35.1886C15.5646 35.6002 15.0069 35.832 14.425 35.8333C13.843 35.8322 13.2851 35.6005 12.8735 35.1889C12.462 34.7774 12.2303 34.2195 12.2292 33.6375V24.15Z" fill="black"/>
<path d="M28.3334 9.16675V34.1667H26.6667V9.16675H28.3334Z" fill="black"/>
<path d="M21.6667 12.5C21.6667 11.1192 24.2784 10 27.5 10C30.7217 10 33.3334 11.1192 33.3334 12.5C29.1667 11.25 26.25 11.25 21.6667 12.5Z" fill="black"/>
<path fill-rule="evenodd" clip-rule="evenodd" d="M21.6667 9.16667H20.4542C20.6212 9.58496 20.7069 10.0313 20.7067 10.4817C20.7042 11.4246 20.3285 12.3282 19.6617 12.9948C18.9949 13.6615 18.0912 14.037 17.1483 14.0392C16.2055 14.0367 15.302 13.661 14.6355 12.9942C13.9689 12.3273 13.5936 11.4237 13.5917 10.4808C13.5917 10.0175 13.6808 9.57417 13.8442 9.16667H12.5C12.5 6.86583 14.5517 5 17.0833 5C19.615 5 21.6667 6.86583 21.6667 9.16667ZM18.5033 9.16667H15.795C15.4633 9.50833 15.2583 9.9725 15.2583 10.4817C15.2605 10.9825 15.4604 11.4621 15.8146 11.8163C16.1687 12.1704 16.6484 12.3703 17.1492 12.3725C17.6501 12.3703 18.1299 12.1703 18.4841 11.816C18.8382 11.4617 19.038 10.9818 19.04 10.4808C19.0394 9.98955 18.8468 9.51796 18.5033 9.16667ZM17.0833 8.33333C17.4149 8.33333 17.7328 8.20164 17.9672 7.96722C18.2016 7.7328 18.3333 7.41485 18.3333 7.08333C18.3333 6.75181 18.2016 6.43387 17.9672 6.19945C17.7328 5.96503 17.4149 5.83333 17.0833 5.83333C16.7518 5.83333 16.4339 5.96503 16.1995 6.19945C15.965 6.43387 15.8333 6.75181 15.8333 7.08333C15.8333 7.41485 15.965 7.7328 16.1995 7.96722C16.4339 8.20164 16.7518 8.33333 17.0833 8.33333Z" fill="black"/>
</svg>
