<svg width="40" height="40" viewBox="0 0 40 40" fill="none" xmlns="http://www.w3.org/2000/svg">
<path d="M23.3333 17.5V13.3334M16.6666 17.5V13.3334M20 36.6667C29.205 36.6667 36.6666 29.205 36.6666 20C36.6666 10.795 29.205 3.33337 20 3.33337C10.795 3.33337 3.33331 10.795 3.33331 20C3.33331 29.205 10.795 36.6667 20 36.6667Z" stroke="black" stroke-width="4" stroke-linecap="round" stroke-linejoin="round"/>
<path d="M20 36.6667V26.6667M20 26.6667C21.7681 26.6667 23.4638 25.9643 24.714 24.714C25.9643 23.4638 26.6666 21.7681 26.6666 20V17.5H13.3333V20C13.3333 21.7681 14.0357 23.4638 15.2859 24.714C16.5362 25.9643 18.2319 26.6667 20 26.6667Z" stroke="black" stroke-width="4" stroke-linecap="round" stroke-linejoin="round"/>
</svg>
