<svg width="41" height="40" viewBox="0 0 41 40" fill="none" xmlns="http://www.w3.org/2000/svg">
<path d="M38.388 11.8C38.452 12.032 38.3712 12.288 38.236 12.488L33.924 18.9039C33.764 19.1519 33.428 19.288 33.1472 19.288C33.0672 19.288 32.8432 19.2719 32.756 19.2479L29.3 18.4V33.5999C29.3 34.0639 28.972 34.4 28.5 34.4H11.7C11.228 34.4 10.9 34.0639 10.9 33.5999V18.4L7.79597 19.2559C7.43597 19.368 7.12397 19.224 6.92397 18.912L2.64397 12.512C2.50797 12.304 2.46797 12.072 2.53197 11.84C2.58797 11.6 2.75597 11.44 2.97197 11.328L11.7 7.19995H15.7C16.172 7.19995 16.5 7.52795 16.5 7.99995C16.5 9.64795 18.812 10.816 20.46 10.816C22.108 10.816 24.5 9.65595 24.5 7.99995C24.5 7.53595 24.828 7.19995 25.3 7.19995H29.3L37.94 11.248C38.164 11.36 38.324 11.56 38.388 11.8Z" fill="black"/>
</svg>
