<svg width="40" height="40" viewBox="0 0 40 40" fill="none" xmlns="http://www.w3.org/2000/svg">
<path d="M34.62 21.925L32.34 15.085C32.0092 14.0892 31.3731 13.2229 30.5218 12.6092C29.6706 11.9956 28.6477 11.6658 27.5983 11.6667H12.4016C11.3523 11.6658 10.3293 11.9956 9.47812 12.6092C8.6269 13.2229 7.99073 14.0892 7.65998 15.085L5.37998 21.925C4.77381 22.1789 4.25617 22.6062 3.89204 23.1533C3.52791 23.7004 3.33353 24.3429 3.33331 25V30C3.33331 31.23 4.00665 32.2934 4.99998 32.8717V35C4.99998 35.4421 5.17557 35.866 5.48813 36.1786C5.8007 36.4911 6.22462 36.6667 6.66665 36.6667H8.33331C8.77534 36.6667 9.19926 36.4911 9.51182 36.1786C9.82438 35.866 9.99998 35.4421 9.99998 35V33.3334H30V35C30 35.4421 30.1756 35.866 30.4881 36.1786C30.8007 36.4911 31.2246 36.6667 31.6666 36.6667H33.3333C33.7753 36.6667 34.1993 36.4911 34.5118 36.1786C34.8244 35.866 35 35.4421 35 35V32.8717C35.5056 32.5817 35.9259 32.1636 36.2185 31.6594C36.5111 31.1553 36.6657 30.5829 36.6666 30V25C36.6666 23.615 35.8216 22.43 34.62 21.925ZM12.4016 15H27.5966C27.9466 15 28.2877 15.11 28.5716 15.3146C28.8554 15.5193 29.0677 15.808 29.1783 16.14L31.0216 21.6667H8.97831L10.82 16.14C11.0483 15.4584 11.685 15 12.4016 15ZM9.16665 30C8.83823 29.9999 8.51306 29.9351 8.20968 29.8094C7.90631 29.6836 7.63068 29.4993 7.39853 29.267C6.92969 28.7978 6.66643 28.1616 6.66665 27.4984C6.66687 26.8351 6.93056 26.1991 7.39971 25.7303C7.86887 25.2614 8.50505 24.9982 9.16831 24.9984C9.83157 24.9986 10.4676 25.2623 10.9364 25.7314C11.4053 26.2006 11.6685 26.8368 11.6683 27.5C11.6681 28.1633 11.4044 28.7993 10.9352 29.2682C10.4661 29.737 9.82991 30.0003 9.16665 30ZM30.8333 30C30.17 29.9998 29.534 29.7361 29.0652 29.267C28.5964 28.7978 28.3331 28.1616 28.3333 27.4984C28.3335 26.8351 28.5972 26.1991 29.0664 25.7303C29.5355 25.2614 30.1717 24.9982 30.835 24.9984C31.4982 24.9986 32.1342 25.2623 32.6031 25.7314C33.0719 26.2006 33.3352 26.8368 33.335 27.5C33.3348 28.1633 33.0711 28.7993 32.6019 29.2682C32.1328 29.737 31.4966 30.0003 30.8333 30ZM8.79498 8.33337C9.37331 9.32504 10.4366 10 11.6666 10C12.8966 10 13.96 9.32504 14.5383 8.33337H25.4633C26.04 9.32504 27.1033 10 28.3333 10C29.5633 10 30.6266 9.32504 31.205 8.33337H28.3333V5.00004H31.205C30.6266 4.00837 29.5633 3.33337 28.3333 3.33337C27.1033 3.33337 26.04 4.00837 25.4616 5.00004H14.5383C13.96 4.00837 12.8966 3.33337 11.6666 3.33337C10.4366 3.33337 9.37331 4.00837 8.79498 5.00004H11.6666V8.33337H8.79498Z" fill="black"/>
</svg>
