<svg width="40" height="40" viewBox="0 0 40 40" fill="none" xmlns="http://www.w3.org/2000/svg">
<g clip-path="url(#clip0_101_331)">
<path d="M35 25H40V40H20V25H25V20H35V25ZM27.5 25H32.5V22.5H27.5V25ZM37.5 32.5H35V35H32.5V32.5H27.5V35H25V32.5H22.5V37.5H37.5V32.5ZM22.5 27.5V30H37.5V27.5H22.5ZM17.5 17.5C17.5 18.7109 17.2331 19.8438 16.6992 20.8984C16.1654 21.9531 15.4036 22.8385 14.4141 23.5547C15 23.8542 15.5534 24.1992 16.0742 24.5898C16.5951 24.9805 17.0703 25.4167 17.5 25.8984V32.5C17.5 31.4714 17.3047 30.5013 16.9141 29.5898C16.5234 28.6784 15.9896 27.8841 15.3125 27.207C14.6354 26.5299 13.8346 25.9896 12.9102 25.5859C11.9857 25.1823 11.0156 24.987 10 25C8.95833 25 7.98828 25.1953 7.08984 25.5859C6.19141 25.9766 5.39714 26.5104 4.70703 27.1875C4.01693 27.8646 3.47656 28.6654 3.08594 29.5898C2.69531 30.5143 2.5 31.4844 2.5 32.5H0C0 31.5495 0.130208 30.6315 0.390625 29.7461C0.651042 28.8607 1.02214 28.0208 1.50391 27.2266C1.98568 26.4323 2.57812 25.7292 3.28125 25.1172C3.98438 24.5052 4.7526 23.9779 5.58594 23.5352C4.60938 22.832 3.85417 21.9531 3.32031 20.8984C2.78646 19.8438 2.51302 18.7109 2.5 17.5C2.5 16.4714 2.69531 15.5013 3.08594 14.5898C3.47656 13.6784 4.01042 12.8841 4.6875 12.207C5.36458 11.5299 6.15885 10.9896 7.07031 10.5859C7.98177 10.1823 8.95833 9.98698 10 10C10.9375 10 11.8294 10.1628 12.6758 10.4883C13.5221 10.8138 14.2969 11.2956 15 11.9336C15.4167 11.556 15.8789 11.224 16.3867 10.9375C15.944 10.4818 15.6055 9.95443 15.3711 9.35547C15.1367 8.75651 15.013 8.13802 15 7.5C15 6.8099 15.1302 6.16536 15.3906 5.56641C15.651 4.96745 16.0091 4.43359 16.4648 3.96484C16.9206 3.49609 17.4479 3.13802 18.0469 2.89062C18.6458 2.64323 19.2969 2.51302 20 2.5C20.6901 2.5 21.3346 2.63021 21.9336 2.89062C22.5326 3.15104 23.0664 3.50911 23.5352 3.96484C24.0039 4.42057 24.362 4.94792 24.6094 5.54688C24.8568 6.14583 24.987 6.79688 25 7.5C25 8.13802 24.8828 8.75651 24.6484 9.35547C24.4141 9.95443 24.069 10.4818 23.6133 10.9375C24.694 11.5365 25.5729 12.3438 26.25 13.3594C26.9271 12.3438 27.806 11.5365 28.8867 10.9375C28.444 10.4818 28.1055 9.95443 27.8711 9.35547C27.6367 8.75651 27.513 8.13802 27.5 7.5C27.5 6.8099 27.6302 6.16536 27.8906 5.56641C28.151 4.96745 28.5091 4.43359 28.9648 3.96484C29.4206 3.49609 29.9479 3.13802 30.5469 2.89062C31.1458 2.64323 31.7969 2.51302 32.5 2.5C33.1901 2.5 33.8346 2.63021 34.4336 2.89062C35.0326 3.15104 35.5664 3.50911 36.0352 3.96484C36.5039 4.42057 36.862 4.94792 37.1094 5.54688C37.3568 6.14583 37.487 6.79688 37.5 7.5C37.5 8.13802 37.3828 8.75651 37.1484 9.35547C36.9141 9.95443 36.569 10.4818 36.1133 10.9375C36.7122 11.263 37.2526 11.6602 37.7344 12.1289C38.2161 12.5977 38.6198 13.112 38.9453 13.6719C39.2708 14.2318 39.5312 14.8438 39.7266 15.5078C39.9219 16.1719 40.013 16.8359 40 17.5H37.5C37.5 16.8099 37.3698 16.1654 37.1094 15.5664C36.849 14.9674 36.4909 14.4336 36.0352 13.9648C35.5794 13.4961 35.0521 13.138 34.4531 12.8906C33.8542 12.6432 33.2031 12.513 32.5 12.5C31.8099 12.5 31.1654 12.6302 30.5664 12.8906C29.9674 13.151 29.4336 13.5091 28.9648 13.9648C28.4961 14.4206 28.138 14.9479 27.8906 15.5469C27.6432 16.1458 27.513 16.7969 27.5 17.5H25C25 16.8099 24.8698 16.1654 24.6094 15.5664C24.349 14.9674 23.9909 14.4336 23.5352 13.9648C23.0794 13.4961 22.5521 13.138 21.9531 12.8906C21.3542 12.6432 20.7031 12.513 20 12.5C19.362 12.5 18.7435 12.6172 18.1445 12.8516C17.5456 13.0859 17.0182 13.431 16.5625 13.8867C16.875 14.4336 17.1094 15.013 17.2656 15.625C17.4219 16.237 17.5 16.862 17.5 17.5ZM32.5 5C32.1484 5 31.8229 5.0651 31.5234 5.19531C31.224 5.32552 30.9635 5.5013 30.7422 5.72266C30.5208 5.94401 30.3385 6.21094 30.1953 6.52344C30.0521 6.83594 29.987 7.16146 30 7.5C30 7.85156 30.0651 8.17708 30.1953 8.47656C30.3255 8.77604 30.5013 9.03646 30.7227 9.25781C30.944 9.47917 31.2109 9.66146 31.5234 9.80469C31.8359 9.94792 32.1615 10.013 32.5 10C32.8516 10 33.1771 9.9349 33.4766 9.80469C33.776 9.67448 34.0365 9.4987 34.2578 9.27734C34.4792 9.05599 34.6615 8.78906 34.8047 8.47656C34.9479 8.16406 35.013 7.83854 35 7.5C35 7.14844 34.9349 6.82292 34.8047 6.52344C34.6745 6.22396 34.4987 5.96354 34.2773 5.74219C34.056 5.52083 33.7891 5.33854 33.4766 5.19531C33.1641 5.05208 32.8385 4.98698 32.5 5ZM20 5C19.6484 5 19.3229 5.0651 19.0234 5.19531C18.724 5.32552 18.4635 5.5013 18.2422 5.72266C18.0208 5.94401 17.8385 6.21094 17.6953 6.52344C17.5521 6.83594 17.487 7.16146 17.5 7.5C17.5 7.85156 17.5651 8.17708 17.6953 8.47656C17.8255 8.77604 18.0013 9.03646 18.2227 9.25781C18.444 9.47917 18.7109 9.66146 19.0234 9.80469C19.3359 9.94792 19.6615 10.013 20 10C20.3516 10 20.6771 9.9349 20.9766 9.80469C21.276 9.67448 21.5365 9.4987 21.7578 9.27734C21.9792 9.05599 22.1615 8.78906 22.3047 8.47656C22.4479 8.16406 22.513 7.83854 22.5 7.5C22.5 7.14844 22.4349 6.82292 22.3047 6.52344C22.1745 6.22396 21.9987 5.96354 21.7773 5.74219C21.556 5.52083 21.2891 5.33854 20.9766 5.19531C20.6641 5.05208 20.3385 4.98698 20 5ZM10 22.5C10.6901 22.5 11.3346 22.3698 11.9336 22.1094C12.5326 21.849 13.0664 21.4909 13.5352 21.0352C14.0039 20.5794 14.362 20.0521 14.6094 19.4531C14.8568 18.8542 14.987 18.2031 15 17.5C15 16.8099 14.8698 16.1654 14.6094 15.5664C14.349 14.9674 13.9909 14.4336 13.5352 13.9648C13.0794 13.4961 12.5521 13.138 11.9531 12.8906C11.3542 12.6432 10.7031 12.513 10 12.5C9.3099 12.5 8.66536 12.6302 8.06641 12.8906C7.46745 13.151 6.93359 13.5091 6.46484 13.9648C5.99609 14.4206 5.63802 14.9479 5.39062 15.5469C5.14323 16.1458 5.01302 16.7969 5 17.5C5 18.1901 5.13021 18.8346 5.39062 19.4336C5.65104 20.0326 6.00911 20.5664 6.46484 21.0352C6.92057 21.5039 7.44792 21.862 8.04688 22.1094C8.64583 22.3568 9.29688 22.487 10 22.5Z" fill="black"/>
</g>
<defs>
<clipPath id="clip0_101_331">
<rect width="40" height="40" fill="white"/>
</clipPath>
</defs>
</svg>
