<svg width="40" height="40" viewBox="0 0 40 40" fill="none" xmlns="http://www.w3.org/2000/svg">
<path d="M11.6666 31.6667C9.83331 31.6667 8.33331 33.1667 8.33331 35H31.6666C31.6666 33.1667 30.1666 31.6667 28.3333 31.6667H21.6666V28.3334H26.6666C28.5 28.3334 30 26.8334 30 25H16.6666C13.9 25 11.6666 22.7667 11.6666 20C11.6666 18.1834 12.65 16.6 14.1 15.7334C13.6166 15.05 13.3333 14.2334 13.3333 13.3334C13.3333 12.9834 13.4 12.6334 13.4833 12.3C11.9607 12.9318 10.6591 14.0001 9.74262 15.3704C8.82615 16.7407 8.33578 18.3516 8.33331 20C8.33331 24.6 12.0666 28.3334 16.6666 28.3334V31.6667H11.6666Z" fill="black"/>
<path d="M17.6 9.18337C19.85 9.23337 21.6667 11.0667 21.6667 13.3334C21.6667 14.5834 21.1167 15.6834 20.25 16.45L21.2334 19.15L22.8 18.5834L23.3667 20.15L26.5 19.0167L25.9334 17.45L27.5 16.8834L22.9334 4.33337L21.3667 4.90004L20.8 3.33337L17.6667 4.46671L18.2334 6.03337L16.6667 6.61671L17.6 9.18337Z" fill="black"/>
<path d="M17.5 15.8334C18.8807 15.8334 20 14.7141 20 13.3334C20 11.9527 18.8807 10.8334 17.5 10.8334C16.1193 10.8334 15 11.9527 15 13.3334C15 14.7141 16.1193 15.8334 17.5 15.8334Z" fill="black"/>
</svg>
