<svg width="40" height="40" viewBox="0 0 40 40" fill="none" xmlns="http://www.w3.org/2000/svg">
<path d="M14 7C13.9997 7.60499 14.1823 8.19593 14.5239 8.69526C14.8655 9.1946 15.35 9.579 15.914 9.798C15.682 10.812 14.986 11.562 13.92 12.662H13.918V12.666C13.708 12.88 13.486 13.108 13.26 13.348C11.28 14.976 10 17.342 10 20C10 20.188 10.006 20.376 10.02 20.56C10.006 20.706 10 20.852 10 21V31C10 31.8777 10.2311 32.7399 10.6699 33.5C11.1088 34.26 11.74 34.8912 12.5001 35.33C13.2601 35.7689 14.1224 35.9999 15 35.9999C15.8777 35.9999 16.7399 35.7688 17.5 35.33C18.2597 35.7698 19.1222 36.0009 20 36C20.8778 36.0009 21.7403 35.7698 22.5 35.33C23.2601 35.7688 24.1223 35.9999 25 35.9999C25.8776 35.9999 26.7399 35.7689 27.4999 35.33C28.26 34.8912 28.8912 34.26 29.3301 33.5C29.7689 32.7399 30 31.8777 30 31V21C30 20.852 29.994 20.706 29.98 20.56C30.1016 18.7532 29.6282 16.9563 28.632 15.444C27.836 14.252 26.926 13.356 26.16 12.6L26.14 12.58C25.048 11.506 24.336 10.768 24.094 9.794C24.7453 9.53932 25.2872 9.06511 25.626 8.45331C25.9648 7.84151 26.0792 7.13058 25.9494 6.44339C25.8197 5.75619 25.4539 5.13592 24.9154 4.68978C24.3768 4.24363 23.6993 3.99965 23 4H17C16.2044 4 15.4413 4.31607 14.8787 4.87868C14.3161 5.44129 14 6.20435 14 7ZM12 31V30H28V31C27.9999 31.565 27.8402 32.1185 27.5393 32.5968C27.2384 33.0751 26.8086 33.4586 26.2993 33.7034C25.79 33.9481 25.222 34.044 24.6606 33.9801C24.0992 33.9161 23.5672 33.695 23.126 33.342C22.9485 33.1995 22.7276 33.1218 22.5 33.1218C22.2724 33.1218 22.0515 33.1995 21.874 33.342C21.3429 33.769 20.6815 34.0013 20 34C19.29 34 18.64 33.754 18.126 33.342C17.9485 33.1995 17.7276 33.1218 17.5 33.1218C17.2724 33.1218 17.0515 33.1995 16.874 33.342C16.4328 33.695 15.9008 33.9161 15.3394 33.9801C14.778 34.044 14.21 33.9481 13.7007 33.7034C13.1914 33.4586 12.7616 33.0751 12.4607 32.5968C12.1598 32.1185 12.0001 31.565 12 31ZM17.912 10H22.092C22.422 11.728 23.58 12.868 24.646 13.918L24.73 14H15.408L15.434 13.974C16.484 12.892 17.598 11.744 17.914 10H17.912ZM23 8H17C16.7348 8 16.4804 7.89464 16.2929 7.70711C16.1054 7.51957 16 7.26522 16 7C16 6.73478 16.1054 6.48043 16.2929 6.29289C16.4804 6.10536 16.7348 6 17 6H23C23.2652 6 23.5196 6.10536 23.7071 6.29289C23.8946 6.48043 24 6.73478 24 7C24 7.26522 23.8946 7.51957 23.7071 7.70711C23.5196 7.89464 23.2652 8 23 8Z" fill="black"/>
</svg>
