<svg width="40" height="40" viewBox="0 0 40 40" fill="none" xmlns="http://www.w3.org/2000/svg">
<mask id="mask0_99_13" style="mask-type:alpha" maskUnits="userSpaceOnUse" x="1" y="1" width="38" height="38">
<path d="M9.16669 34.1666C12.6392 32.675 15.91 31.8691 18.9792 31.7516C22.0475 31.6333 25.9992 32.16 30.8334 33.3333" stroke="white" stroke-width="4" stroke-linecap="round"/>
<path d="M19.2042 36.6667C18.565 28.8 18.83 22.6892 20 18.3334" stroke="white" stroke-width="4" stroke-linecap="round"/>
<path fill-rule="evenodd" clip-rule="evenodd" d="M20 19.3133C21.325 14.2983 23.6583 11.3075 27 10.3417C30.3408 9.37499 33.5633 9.81749 36.6667 11.67C36.6825 15.7467 34.9125 18.7333 31.3583 20.6292C27.8033 22.5258 24.0167 22.0875 20 19.3133ZM19.8267 18.4283C20.5208 12.4392 19.1292 8.22166 15.6517 5.77416C12.175 3.32666 8.14668 2.77999 3.57002 4.13333C2.77085 9.65833 3.99335 13.8358 7.23585 16.6658C10.4792 19.4958 14.6758 20.0833 19.8267 18.4275V18.4283Z" fill="white" stroke="white" stroke-width="4" stroke-linejoin="round"/>
</mask>
<g mask="url(#mask0_99_13)">
<path d="M0 0H40V40H0V0Z" fill="black"/>
</g>
</svg>
